<svg id="Warstwa_1" data-name="Warstwa 1" xmlns="http://www.w3.org/2000/svg" viewBox="0 0 27.71 22.87"><path d="M27.38,2.73H.94c-.35,0-.63-.37-.63-.83V1C.31.5.59.13.94.13H27.38c.35,0,.63.37.63.84V1.9C28,2.36,27.73,2.73,27.38,2.73Z" transform="translate(-0.3 -0.13)"/><path d="M27.37,12.86H.93C.58,12.86.3,12.49.3,12V11.1c0-.47.28-.84.63-.84H27.37c.35,0,.63.37.63.84V12C28,12.49,27.72,12.86,27.37,12.86Z" transform="translate(-0.3 -0.13)"/><path d="M27.37,23H.93c-.35,0-.63-.38-.63-.84v-.93c0-.47.28-.84.63-.84H27.37c.35,0,.63.37.63.84v.93C28,22.62,27.72,23,27.37,23Z" transform="translate(-0.3 -0.13)"/></svg>