<?xml version="1.0" encoding="utf-8"?>
<!-- Generator: Adobe Illustrator 24.2.3, SVG Export Plug-In . SVG Version: 6.00 Build 0)  -->
<svg version="1.1" id="Warstwa_1" xmlns="http://www.w3.org/2000/svg" xmlns:xlink="http://www.w3.org/1999/xlink" x="0px" y="0px"
	 viewBox="0 0 40.5 19.2" style="enable-background:new 0 0 40.5 19.2;" xml:space="preserve">
<style type="text/css">
	.st0{stroke:#000000;stroke-width:0.75;stroke-miterlimit:10;}
</style>
<path class="st0" d="M39.2,3.2h-38c-0.5,0-0.9-0.4-0.9-0.9v-1c0-0.5,0.4-0.9,0.9-0.9h38c0.5,0,0.9,0.4,0.9,0.9v1
	C40.1,2.8,39.7,3.2,39.2,3.2z"/>
<path class="st0" d="M39.2,11h-38c-0.5,0-0.9-0.4-0.9-0.9v-1c0-0.5,0.4-0.9,0.9-0.9h38c0.5,0,0.9,0.4,0.9,0.9v1
	C40.1,10.6,39.7,11,39.2,11z"/>
<path class="st0" d="M39.2,18.8h-38c-0.5,0-0.9-0.4-0.9-0.9v-1c0-0.5,0.4-0.9,0.9-0.9h38c0.5,0,0.9,0.4,0.9,0.9v1
	C40.1,18.4,39.7,18.8,39.2,18.8z"/>
</svg>
