<svg xmlns="http://www.w3.org/2000/svg" viewBox="0 0 34.77 23.04"><defs><style>.cls-1{stroke:#000;stroke-miterlimit:10;stroke-width:0.75px;}</style></defs><g id="Warstwa_2" data-name="Warstwa 2"><g id="Warstwa_1-2" data-name="Warstwa 1"><path class="cls-1" d="M33.62,3.77H1.14c-.42,0-.76-.49-.76-1.09V1.47C.38.86.72.38,1.14.38H33.62c.43,0,.77.48.77,1.09V2.68C34.39,3.28,34.05,3.77,33.62,3.77Z"/><path class="cls-1" d="M33.62,13.22H1.14c-.42,0-.76-.49-.76-1.09V10.92c0-.61.34-1.09.76-1.09H33.62c.43,0,.77.48.77,1.09v1.21C34.39,12.73,34.05,13.22,33.62,13.22Z"/><path class="cls-1" d="M33.62,22.67H1.14c-.42,0-.76-.49-.76-1.09V20.37c0-.61.34-1.09.76-1.09H33.62c.43,0,.77.48.77,1.09v1.21C34.39,22.18,34.05,22.67,33.62,22.67Z"/></g></g></svg>