<svg xmlns="http://www.w3.org/2000/svg" viewBox="0 0 30.06 22.29"><g id="Warstwa_2" data-name="Warstwa 2"><g id="Warstwa_1-2" data-name="Warstwa 1"><path d="M29.38,3.39H.68C.3,3.39,0,2.91,0,2.3V1.09C0,.48.3,0,.68,0h28.7c.38,0,.68.48.68,1.09V2.3C30.06,2.91,29.76,3.39,29.38,3.39Z"/><path d="M29.38,12.84H.68c-.38,0-.68-.48-.68-1.09V10.54c0-.6.3-1.09.68-1.09h28.7c.38,0,.68.49.68,1.09v1.21C30.06,12.36,29.76,12.84,29.38,12.84Z"/><path d="M29.38,22.29H.68C.3,22.29,0,21.81,0,21.2V20c0-.6.3-1.09.68-1.09h28.7c.38,0,.68.49.68,1.09V21.2C30.06,21.81,29.76,22.29,29.38,22.29Z"/></g></g></svg>